<?xml version="1.0" encoding="UTF-8"?> <svg xmlns="http://www.w3.org/2000/svg" width="57" height="57" viewBox="0 0 57 57" fill="none"><rect x="0.5" y="0.5" width="56" height="56" rx="28" fill="white" stroke="black"></rect><g clip-path="url(#clip0)"><path d="M40.9415 17.849H40.5517V16.5172C40.5517 15.3316 39.5935 14.3572 38.3917 14.3572C37.1898 14.3572 36.2316 15.3154 36.2316 16.5172V17.849H33.7142V16.5172C33.7142 15.3316 32.756 14.3572 31.5542 14.3572C30.3524 14.3572 29.3941 15.3154 29.3941 16.5172V17.849H26.9093V16.5172C26.9093 15.3154 25.9348 14.3572 24.7492 14.3572C23.5636 14.3572 22.6054 15.3154 22.6054 16.5172V17.849H20.088V16.5172C20.088 15.3154 19.1136 14.3572 17.928 14.3572C16.7424 14.3572 15.7842 15.3154 15.7842 16.5172V17.849H15.4756C13.5591 17.849 12 19.4081 12 21.3083V39.9693C12 41.8857 13.5591 43.4286 15.4593 43.4286H40.9415C42.8417 43.4286 44.4008 41.8695 44.4008 39.9693V21.3083C44.4008 19.4081 42.8579 17.849 40.9415 17.849ZM37.1411 17.849V16.5172C37.1411 15.8189 37.7095 15.2667 38.3917 15.2667C39.0738 15.2667 39.6422 15.8351 39.6422 16.5172V17.849V20.4151C39.6422 21.1134 39.0738 21.6656 38.3917 21.6656C37.7095 21.6656 37.1411 21.0972 37.1411 20.4151V17.849ZM30.3199 17.849V16.5172C30.3199 15.8189 30.8883 15.2667 31.5704 15.2667C32.2526 15.2667 32.821 15.8351 32.821 16.5172V17.849V20.4151C32.821 21.1134 32.2526 21.6656 31.5704 21.6656C30.8883 21.6656 30.3199 21.0972 30.3199 20.4151V17.849ZM23.4986 17.849V16.5172C23.4986 15.8189 24.0671 15.2667 24.7492 15.2667C25.4313 15.2667 25.9998 15.8351 25.9998 16.5172V17.849V20.4151C25.9998 21.1134 25.4313 21.6656 24.7492 21.6656C24.0671 21.6656 23.4986 21.0972 23.4986 20.4151V17.849ZM16.6774 17.849V16.5172C16.6774 15.8189 17.2459 15.2667 17.928 15.2667C18.6101 15.2667 19.1785 15.8351 19.1785 16.5172V17.849V20.4151C19.1785 21.1134 18.6101 21.6656 17.928 21.6656C17.2459 21.6656 16.6774 21.0972 16.6774 20.4151V17.849ZM19.6333 42.5354H15.4593C14.0464 42.5354 12.8933 41.3822 12.8933 39.9693V36.9322H19.6333V42.5354ZM19.6333 36.0389H12.8933V30.5982H19.6333V36.0389ZM19.6333 29.7049H12.8933V25.0763H19.6333V29.7049ZM20.5265 29.7049V25.0763H27.835V29.7049H20.5265ZM27.835 42.5354H20.5265V36.9322H27.835V42.5354ZM35.5495 42.5354H28.7283V36.9322H35.5495V42.5354ZM35.5495 36.0389H28.7283V30.5982H35.5495V36.0389ZM35.5495 29.7049H28.7283V25.0763H35.5495V29.7049ZM43.5076 39.9693C43.5076 41.3822 42.3545 42.5354 40.9415 42.5354H36.4427V36.9322H43.5076V39.9693ZM43.5076 36.0389H36.4427V30.5982H43.5076V36.0389ZM43.5076 29.7049H36.4427V25.0763H43.5076V29.7049ZM43.5076 24.183H12.8933V21.3083C12.8933 19.8954 14.0464 18.7423 15.4593 18.7423H15.7679V20.3988C15.7679 21.5844 16.7261 22.5589 17.928 22.5589C19.1298 22.5589 20.088 21.6007 20.088 20.3988V18.7423H22.6054V20.3988C22.6054 21.5844 23.5636 22.5589 24.7654 22.5589C25.9673 22.5589 26.9255 21.6007 26.9255 20.3988V18.7423H29.4429V20.3988C29.4429 21.5844 30.4011 22.5589 31.6029 22.5589C32.8047 22.5589 33.763 21.6007 33.763 20.3988V18.7423H36.2803V20.3988C36.2803 21.5844 37.2385 22.5589 38.4404 22.5589C39.6422 22.5589 40.6004 21.6007 40.6004 20.3988V18.7423H40.9902C42.4032 18.7423 43.5563 19.8954 43.5563 21.3083V24.183H43.5076Z" fill="#A31F34"></path></g><defs><clipPath id="clip0"><rect x="12" y="14.3572" width="32.4008" height="29.0714" fill="white"></rect></clipPath></defs></svg> 