<?xml version="1.0" encoding="UTF-8"?> <svg xmlns="http://www.w3.org/2000/svg" width="57" height="57" viewBox="0 0 57 57" fill="none"><rect x="0.5" y="0.5" width="56" height="56" rx="28" fill="white" stroke="black"></rect><path d="M34.358 32.6467C34.358 33.9717 33.8649 35.0526 32.8787 35.8894C31.8924 36.7262 30.5276 37.2542 28.7842 37.4734V41H27.5738V37.5332C26.6573 37.5133 25.6561 37.4037 24.5702 37.2044C23.4943 36.9952 22.6376 36.7412 22 36.4423V34.9032C22.7472 35.2618 23.6388 35.5657 24.6748 35.8147C25.7209 36.0638 26.6872 36.1883 27.5738 36.1883V28.5971C26.1293 28.1588 25.0584 27.7205 24.361 27.2821C23.6637 26.8438 23.1556 26.3258 22.8368 25.728C22.518 25.1303 22.3586 24.4031 22.3586 23.5463C22.3586 22.311 22.8269 21.275 23.7633 20.4381C24.7097 19.5914 25.9799 19.0683 27.5738 18.8691V16H28.7842V18.8392C30.7468 18.9289 32.4951 19.2875 34.0293 19.9151L33.5362 21.26C32.1315 20.6424 30.5475 20.2837 28.7842 20.1841V27.4465C30.9062 28.104 32.3656 28.8213 33.1626 29.5983C33.9596 30.3754 34.358 31.3915 34.358 32.6467ZM32.7143 32.587C32.7143 31.7402 32.4005 31.0428 31.7729 30.4949C31.1452 29.937 30.149 29.4589 28.7842 29.0604V36.0986C29.9996 35.9691 30.956 35.5955 31.6533 34.9779C32.3606 34.3602 32.7143 33.5633 32.7143 32.587ZM23.9874 23.5463C23.9874 24.4031 24.2714 25.1054 24.8392 25.6533C25.4071 26.2012 26.3186 26.6645 27.5738 27.043V20.2738C26.3883 20.4332 25.4917 20.8117 24.884 21.4094C24.2863 22.0072 23.9874 22.7195 23.9874 23.5463Z" fill="#A31F34"></path></svg> 