<?xml version="1.0" encoding="UTF-8"?> <svg xmlns="http://www.w3.org/2000/svg" width="57" height="57" viewBox="0 0 57 57" fill="none"><rect x="0.5" y="0.5" width="56" height="56" rx="28" fill="white" stroke="black"></rect><path d="M44.7787 16H25.7031C25.4026 16 25.1591 16.2476 25.1591 16.5531C25.1591 16.8586 25.4026 17.1062 25.7031 17.1062H44.7787C45.2787 17.1062 45.6852 17.5196 45.6852 18.0279V38.9718C45.6852 39.4801 45.2784 39.8938 44.7787 39.8938H11.9945C11.4945 39.8938 11.088 39.4801 11.088 38.9718V18.0279C11.088 17.5196 11.4948 17.1062 11.9945 17.1062H23.1643C23.4648 17.1062 23.7083 16.8586 23.7083 16.5531C23.7083 16.2476 23.4648 16 23.1643 16H11.9945C10.8947 16 10 16.9097 10 18.0279V38.9718C10 40.0903 10.8947 41 11.9945 41H44.7784C45.8785 41 46.7732 40.09 46.7732 38.9718V18.0279C46.7732 16.9097 45.8785 16 44.7787 16Z" fill="#A31F34"></path><path d="M14.7324 32.8877V35.6165C14.7324 35.9217 14.9759 36.1696 15.2764 36.1696H28.1868C28.4873 36.1696 28.7308 35.9217 28.7308 35.6165V32.8877C28.7308 30.4767 27.0357 28.4608 24.7938 28.0064C25.1285 27.4518 25.3218 26.8 25.3218 26.1031V24.4805C25.3218 22.4678 23.7111 20.8301 21.7315 20.8301C19.7519 20.8301 18.1412 22.4678 18.1412 24.4805V26.1031C18.1412 26.8 18.3345 27.4518 18.6692 28.0064C16.4273 28.4608 14.7324 30.4767 14.7324 32.8877ZM19.2292 24.4805C19.2292 23.0776 20.3517 21.9363 21.7315 21.9363C23.1113 21.9363 24.2338 23.0776 24.2338 24.4805V26.1031C24.2338 27.506 23.1113 28.6473 21.7315 28.6473C20.3517 28.6473 19.2292 27.506 19.2292 26.1031V24.4805ZM19.5726 29.0176C20.1738 29.4792 20.9218 29.7536 21.7315 29.7536C22.5414 29.7536 23.2894 29.4792 23.8906 29.0176C25.9645 29.0481 27.6428 30.772 27.6428 32.8877V35.0634H15.8201V32.8877C15.8201 30.772 17.4984 29.0478 19.5726 29.0176Z" fill="#A31F34"></path><path d="M13.0098 32.6389C12.7093 32.6389 12.4658 32.8868 12.4658 33.1921V37.9396C12.4658 38.2451 12.7093 38.4927 13.0098 38.4927H43.7628C44.0633 38.4927 44.3068 38.2451 44.3068 37.9396V19.0607C44.3068 18.7552 44.0633 18.5076 43.7628 18.5076H13.0098C12.7093 18.5076 12.4658 18.7552 12.4658 19.0607V30.6156C12.4658 30.9211 12.7093 31.1687 13.0098 31.1687C13.3103 31.1687 13.5538 30.9211 13.5538 30.6156V19.6138H43.2188V37.3865H13.5538V33.1921C13.5538 32.8868 13.3103 32.6389 13.0098 32.6389Z" fill="#A31F34"></path><path d="M33.1553 29.5693C33.2384 29.5693 33.322 29.5499 33.3986 29.5109L38.6209 26.8561C38.8052 26.7622 38.9216 26.5708 38.9216 26.3615C38.9216 26.1518 38.8052 25.9604 38.6209 25.8669L33.3986 23.2121C33.23 23.1262 33.0296 23.1354 32.8692 23.2361C32.709 23.337 32.6113 23.515 32.6113 23.7067V29.0162C32.6113 29.2079 32.709 29.3859 32.8692 29.4866C32.9567 29.5414 33.056 29.5693 33.1553 29.5693ZM33.6993 24.6015L37.1611 26.3615L33.6993 28.1214V24.6015Z" fill="#A31F34"></path><path d="M31.9041 31.5235V31.8556H30.127C29.8268 31.8556 29.583 32.1032 29.583 32.4086C29.583 32.7139 29.8268 32.9614 30.127 32.9614H31.9041V33.2935C31.9041 33.599 32.1476 33.8466 32.4481 33.8466C32.7485 33.8466 32.9921 33.599 32.9921 33.2935V32.9614H41.2968C41.5973 32.9614 41.8408 32.7139 41.8408 32.4086C41.8408 32.1032 41.5973 31.8556 41.2968 31.8556H32.9921V31.5235C32.9921 31.218 32.7485 30.9705 32.4481 30.9705C32.1476 30.9705 31.9041 31.218 31.9041 31.5235Z" fill="#A31F34"></path></svg> 