<?xml version="1.0" encoding="UTF-8"?> <svg xmlns="http://www.w3.org/2000/svg" width="57" height="57" viewBox="0 0 57 57" fill="none"><rect x="0.5" y="0.5" width="56" height="56" rx="28" fill="white" stroke="black"></rect><g clip-path="url(#clip0)"><path d="M38.6505 29.4241C35.2726 29.4241 32.5117 32.1696 32.5117 35.5629C32.5117 38.9562 35.2572 41.7017 38.6505 41.7017C42.0439 41.7017 44.7894 38.9562 44.7894 35.5629C44.7894 32.1696 42.0284 29.4241 38.6505 29.4241ZM38.6505 40.838C35.7354 40.838 33.3755 38.4626 33.3755 35.5629C33.3755 32.6631 35.7508 30.2878 38.6505 30.2878C41.5503 30.2878 43.9256 32.6631 43.9256 35.5629C43.9256 38.4626 41.5503 40.838 38.6505 40.838Z" fill="#A31F34"></path><path d="M42.4294 35.9794H39.3137V31.4756C39.3137 31.2442 39.1286 31.0437 38.8818 31.0437C38.635 31.0437 38.45 31.2288 38.45 31.4756V36.8278H42.4294C42.6607 36.8278 42.8613 36.6427 42.8613 36.3959C42.8613 36.1491 42.6607 35.9794 42.4294 35.9794Z" fill="#A31F34"></path><path d="M43.6941 28.7918V20.4319C43.6941 18.7198 42.3059 17.3162 40.5784 17.3162H40.1003V16.0514C40.1003 14.9254 39.1902 14 38.0488 14C36.9075 14 35.9974 14.91 35.9974 16.0514V17.3162H33.6067V16.0514C33.6067 14.9254 32.6967 14 31.5553 14C30.4139 14 29.5039 14.91 29.5039 16.0514V17.3162H27.1594V16.0514C27.1594 14.91 26.2339 14 25.108 14C23.982 14 23.072 14.91 23.072 16.0514V17.3162H20.6812V16.0514C20.6812 14.91 19.7558 14 18.6298 14C17.5039 14 16.5938 14.91 16.5938 16.0514V17.3162H16.1157C14.3882 17.3162 13 18.7044 13 20.4319V38.5861C13 40.2982 14.3882 41.7018 16.1157 41.7018H32.8509C34.3625 43.1362 36.3985 44.0154 38.6504 44.0154C43.3085 44.0154 47.1028 40.2211 47.1028 35.563C47.0874 32.7866 45.7609 30.3342 43.6941 28.7918ZM42.5219 28.0514C42.4602 28.0206 42.4139 27.9897 42.3522 27.9589C42.3059 27.928 42.2442 27.9126 42.1979 27.8817C42.1362 27.8509 42.0746 27.8355 42.0283 27.8046C41.982 27.7892 41.9357 27.7584 41.8895 27.7429C41.7969 27.6967 41.6889 27.6658 41.581 27.6195C41.5501 27.6041 41.5039 27.5887 41.473 27.5887C41.3805 27.5578 41.3033 27.527 41.2108 27.4961C41.1799 27.4807 41.1491 27.4807 41.1183 27.4653C41.0103 27.4344 40.8869 27.4036 40.7789 27.3727C40.7481 27.3727 40.7172 27.3573 40.7018 27.3573C40.5938 27.3265 40.5013 27.3111 40.3933 27.2802C40.3779 27.2802 40.347 27.2648 40.3316 27.2648C40.2082 27.2339 40.0848 27.2185 39.9614 27.2031C39.9306 27.2031 39.9152 27.1877 39.8843 27.1877C39.7764 27.1722 39.653 27.1568 39.545 27.1414C39.5296 27.1414 39.5141 27.1414 39.4987 27.1414C39.3753 27.126 39.2519 27.126 39.1285 27.1105C39.0977 27.1105 39.0668 27.1105 39.036 27.1105C38.9126 27.1105 38.7738 27.0951 38.6504 27.0951C38.5116 27.0951 38.3573 27.0951 38.2185 27.1105C37.5244 27.1414 36.8612 27.2648 36.2288 27.4499V24.1799H42.8612V28.2365C42.8458 28.2211 42.8303 28.2211 42.8149 28.2057C42.7069 28.1594 42.6144 28.1131 42.5219 28.0514ZM30.2134 35.2082H28.8869V29.4242H32.8355C31.509 30.6889 30.5835 32.3702 30.2905 34.2673C30.2442 34.5758 30.2134 34.8843 30.2134 35.2082ZM21.0977 35.2082V29.4242H28.0386V35.2082H21.0977ZM28.0386 36.0566V40.838H21.0977V36.0566H28.0386ZM28.0386 24.1799V28.5758H21.0977V24.1799H28.0386ZM35.365 24.1799V27.7738C34.8406 27.9897 34.3625 28.2674 33.8997 28.5758H28.8869V24.1799H35.365ZM36.8766 16.0514C36.8766 15.3882 37.4165 14.8638 38.0643 14.8638C38.7121 14.8638 39.2519 15.4036 39.2519 16.0514V17.3162V19.7532C39.2519 20.4165 38.7121 20.9409 38.0643 20.9409C37.4165 20.9409 36.8766 20.401 36.8766 19.7532V17.3162V16.0514ZM30.3985 16.0514C30.3985 15.3882 30.9383 14.8638 31.5861 14.8638C32.2339 14.8638 32.7738 15.4036 32.7738 16.0514V17.3162V19.7532C32.7738 20.4165 32.2339 20.9409 31.5861 20.9409C30.9383 20.9409 30.3985 20.401 30.3985 19.7532V17.3162V16.0514ZM23.9203 16.0514C23.9203 15.3882 24.4602 14.8638 25.108 14.8638C25.7558 14.8638 26.2956 15.4036 26.2956 16.0514V17.3162V19.7532C26.2956 20.4165 25.7558 20.9409 25.108 20.9409C24.4602 20.9409 23.9203 20.401 23.9203 19.7532V17.3162V16.0514ZM17.4422 16.0514C17.4422 15.3882 17.982 14.8638 18.6298 14.8638C19.2776 14.8638 19.8175 15.4036 19.8175 16.0514V17.3162V19.7532C19.8175 20.4165 19.2776 20.9409 18.6298 20.9409C17.982 20.9409 17.4422 20.401 17.4422 19.7532V17.3162V16.0514ZM16.1157 18.1645H16.5938V19.7378C16.5938 20.8638 17.5039 21.7892 18.6452 21.7892C19.7866 21.7892 20.6967 20.8792 20.6967 19.7378V18.1645H23.0874V19.7378C23.0874 20.8638 23.9974 21.7892 25.1388 21.7892C26.2802 21.7892 27.1902 20.8792 27.1902 19.7378V18.1645H29.581V19.7378C29.581 20.8638 30.491 21.7892 31.6324 21.7892C32.7738 21.7892 33.6838 20.8792 33.6838 19.7378V18.1645H36.0746V19.7378C36.0746 20.8638 36.9846 21.7892 38.126 21.7892C39.2674 21.7892 40.1774 20.8792 40.1774 19.7378V18.1645H40.6555C41.9049 18.1645 42.9075 19.1825 42.9075 20.4165V23.3162H13.8483V20.4319C13.8483 19.1825 14.8663 18.1645 16.1157 18.1645ZM13.8483 38.5861V24.1799H20.2494V28.5758H13.8946V29.4242H20.2494V35.2082H13.8946V36.0566H20.2494V40.838H16.1157C14.8663 40.838 13.8483 39.82 13.8483 38.5861ZM28.8869 40.838V36.0566H30.2134V36.072C30.2134 36.1645 30.2288 36.2725 30.2288 36.365C30.2288 36.3959 30.2442 36.4422 30.2442 36.473C30.2596 36.581 30.2751 36.6735 30.2905 36.7815C30.2905 36.8123 30.3059 36.8432 30.3059 36.874C30.3213 36.9974 30.3522 37.1208 30.3676 37.2442V37.2596C30.6144 38.4627 31.1234 39.6041 31.8638 40.5913C31.8792 40.6067 31.8946 40.6375 31.91 40.653C31.9563 40.7147 32.0026 40.7763 32.0488 40.838H28.8869ZM38.6504 43.1517C36.5835 43.1517 34.7018 42.3188 33.3291 40.9614C33.0668 40.7147 32.8355 40.437 32.6195 40.1594C31.7866 39.0797 31.2468 37.7686 31.0925 36.3496V36.3342C31.0771 36.2262 31.0771 36.1182 31.0617 36.0103C31.0617 35.9949 31.0617 35.964 31.0617 35.9486C31.0617 35.8252 31.0463 35.6864 31.0463 35.563C31.0463 31.3676 34.455 27.9743 38.635 27.9743C38.7584 27.9743 38.8663 27.9743 38.9897 27.9897C39.0206 27.9897 39.0668 27.9897 39.0977 27.9897C39.1902 27.9897 39.2674 28.0051 39.3599 28.0051C39.3907 28.0051 39.437 28.0051 39.4679 28.0206C39.5758 28.036 39.6684 28.0514 39.7764 28.0668C39.7918 28.0668 39.8072 28.0668 39.8072 28.0668C39.9152 28.0823 40.0386 28.0977 40.1465 28.1285C40.1774 28.1285 40.2082 28.144 40.2545 28.144C40.3316 28.1594 40.4087 28.1748 40.4859 28.1902C40.5321 28.2057 40.563 28.2057 40.6093 28.2211C40.6864 28.2365 40.7635 28.2674 40.8252 28.2828C40.856 28.2982 40.9023 28.2982 40.9332 28.3136C41.0411 28.3445 41.1337 28.3753 41.2262 28.4216C41.2725 28.437 41.3188 28.4524 41.365 28.4833C41.4113 28.4987 41.473 28.5296 41.5193 28.545C41.581 28.5758 41.6427 28.5913 41.6889 28.6221C41.7198 28.6375 41.7661 28.653 41.7969 28.6684C41.8586 28.6992 41.9357 28.7301 41.9974 28.7609C42.0129 28.7609 42.0283 28.7763 42.0437 28.7763C42.383 28.946 42.7069 29.1465 43.0154 29.3625L43.1388 29.4396C45.0206 30.8278 46.2391 33.0488 46.2391 35.5476C46.2391 39.7429 42.8303 43.1517 38.6504 43.1517Z" fill="#A31F34"></path></g><defs><clipPath id="clip0"><rect x="13" y="14" width="34.0874" height="30" fill="white"></rect></clipPath></defs></svg> 