<?xml version="1.0" encoding="UTF-8"?> <svg xmlns="http://www.w3.org/2000/svg" width="57" height="57" viewBox="0 0 57 57" fill="none"><rect x="0.5" y="0.5" width="56" height="56" rx="28" fill="white" stroke="black"></rect><path d="M28.2282 12C19.2657 12 12 19.3874 12 28.5C12 37.6126 19.2657 45 28.2282 45C37.1907 45 44.4564 37.6126 44.4564 28.5C44.4464 19.3917 37.1865 12.0102 28.2282 12ZM28.2282 43.9C19.8632 43.9 13.0819 37.0051 13.0819 28.5C13.0819 19.9949 19.8632 13.1 28.2282 13.1C36.5932 13.1 43.3745 19.9949 43.3745 28.5C43.365 37.0011 36.5893 43.8903 28.2282 43.9Z" fill="#A31F34"></path><path d="M28.2284 15.2998C21.0583 15.2998 15.2458 21.2096 15.2458 28.4998C15.2458 35.79 21.0583 41.6999 28.2284 41.6999C35.3985 41.6999 41.211 35.79 41.211 28.4998C41.2025 21.2131 35.3951 15.3084 28.2284 15.2998ZM28.7694 40.5862V38.9499C28.7694 38.6461 28.5271 38.3999 28.2284 38.3999C27.9297 38.3999 27.6875 38.6461 27.6875 38.9499V40.5862C21.5438 40.2945 16.628 35.2964 16.3412 29.0498H17.9506C18.2493 29.0498 18.4915 28.8036 18.4915 28.4998C18.4915 28.1961 18.2493 27.9498 17.9506 27.9498H16.3412C16.628 21.7032 21.5438 16.7052 27.6875 16.4135V18.0498C27.6875 18.3535 27.9297 18.5998 28.2284 18.5998C28.5271 18.5998 28.7694 18.3535 28.7694 18.0498V16.4135C34.913 16.7052 39.8288 21.7032 40.1156 27.9498H38.5063C38.2076 27.9498 37.9653 28.1961 37.9653 28.4998C37.9653 28.8036 38.2076 29.0498 38.5063 29.0498H40.1156C39.8288 35.2964 34.913 40.2945 28.7694 40.5862Z" fill="#A31F34"></path><path d="M35.2604 27.9501H29.7514C29.5229 27.2932 28.9133 26.853 28.2281 26.85C27.9867 26.8509 27.7487 26.9072 27.5319 27.0149L27.5287 27.0101L21.5784 20.96C21.366 20.7516 21.0287 20.7546 20.8201 20.9668C20.6114 21.1789 20.6085 21.5219 20.8135 21.7378L26.7638 27.7878L26.7685 27.7911C26.6624 28.0118 26.6064 28.2543 26.6053 28.5001C26.6037 29.3028 27.1719 29.9895 27.95 30.1256C28.7281 30.2615 29.4891 29.8071 29.7514 29.0501H35.2604C35.5591 29.0501 35.8013 28.8038 35.8013 28.5001C35.8013 28.1963 35.5591 27.9501 35.2604 27.9501ZM28.2281 29.0501C27.9294 29.0501 27.6872 28.8038 27.6872 28.5001C27.6872 28.1963 27.9294 27.9501 28.2281 27.9501C28.5269 27.9501 28.7691 28.1963 28.7691 28.5001C28.7691 28.8038 28.5269 29.0501 28.2281 29.0501Z" fill="#A31F34"></path></svg> 