<?xml version="1.0" encoding="UTF-8"?> <svg xmlns="http://www.w3.org/2000/svg" width="57" height="57" viewBox="0 0 57 57" fill="none"><rect x="0.5" y="0.5" width="56" height="56" rx="28" fill="white" stroke="black"></rect><path d="M31.2991 31.3003H38.32C38.6037 31.3003 38.8335 31.0666 38.8335 30.7783C38.8335 30.4901 38.6037 30.2563 38.32 30.2563H31.2991C31.0155 30.2563 30.7856 30.4901 30.7856 30.7783C30.7856 31.0666 31.0155 31.3003 31.2991 31.3003Z" fill="#A31F34"></path><path d="M31.2991 34.6125H38.32C38.6037 34.6125 38.8335 34.3786 38.8335 34.0901C38.8335 33.8015 38.6037 33.5676 38.32 33.5676H31.2991C31.0155 33.5676 30.7856 33.8015 30.7856 34.0901C30.7856 34.3786 31.0155 34.6125 31.2991 34.6125Z" fill="#A31F34"></path><path d="M31.2991 37.9238H38.32C38.6037 37.9238 38.8335 37.6899 38.8335 37.4013C38.8335 37.1128 38.6037 36.8789 38.32 36.8789H31.2991C31.0155 36.8789 30.7856 37.1128 30.7856 37.4013C30.7856 37.6899 31.0155 37.9238 31.2991 37.9238Z" fill="#A31F34"></path><path d="M25.695 18.4702H18.6741C18.3905 18.4702 18.1606 18.7039 18.1606 18.9922C18.1606 19.2805 18.3905 19.5142 18.6741 19.5142H25.695C25.9786 19.5142 26.2085 19.2805 26.2085 18.9922C26.2085 18.7039 25.9786 18.4702 25.695 18.4702Z" fill="#A31F34"></path><path d="M26.2085 22.3034C26.2085 22.015 25.9786 21.7812 25.695 21.7812H18.6741C18.3905 21.7812 18.1606 22.015 18.1606 22.3034C18.1606 22.5918 18.3905 22.8256 18.6741 22.8256H25.695C25.9786 22.8256 26.2085 22.5919 26.2085 22.3034Z" fill="#A31F34"></path><path d="M18.6741 25.0928C18.3905 25.0928 18.1606 25.3265 18.1606 25.6148C18.1606 25.903 18.3905 26.1367 18.6741 26.1367H22.1846C22.4681 26.1367 22.698 25.903 22.698 25.6148C22.698 25.3265 22.4681 25.0928 22.1846 25.0928H18.6741Z" fill="#A31F34"></path><path d="M37.938 25.5046H33.1118C33.4652 24.5711 33.6446 23.5887 33.6446 22.5735V22.2404C33.6446 17.6966 30.0053 14 25.532 14H22.724C22.4404 14 22.2105 14.2337 22.2105 14.522C22.2105 14.8103 22.4404 15.0441 22.724 15.0441H25.532C29.4391 15.0441 32.6178 18.2723 32.6178 22.2404V22.5735C32.6178 23.596 32.4094 24.5803 31.9994 25.5046H31.5167C28.4616 25.5046 25.7959 27.229 24.4125 29.7697H19.1126L17.5635 29.7696C17.3548 29.7691 17.2768 29.789 17.0863 29.8886L14.58 31.1971L14.7201 28.5547C14.7474 28.3608 14.6774 28.1755 14.5294 28.0514C12.939 26.6745 12.0269 24.6781 12.0269 22.5735V22.2404C12.0269 18.2723 15.2055 15.0441 19.1126 15.0441H20.3527C20.6363 15.0441 20.8661 14.8104 20.8661 14.5221C20.8661 14.2338 20.6363 14.0001 20.3527 14.0001H19.1126C14.6393 14.0001 11 17.6966 11 22.2404V22.5735C11 24.9045 11.9755 27.1186 13.6847 28.6869L13.5217 31.7633C13.5017 32.1125 13.6714 32.2948 13.7745 32.3724C13.8581 32.4354 13.9814 32.4956 14.147 32.4956C14.2343 32.4956 14.3334 32.4789 14.4447 32.4372C14.4641 32.4299 14.4832 32.4214 14.5016 32.4118L17.5556 30.8173C17.558 30.8161 17.5602 30.8149 17.5623 30.8138L23.9349 30.8138C23.5923 31.725 23.404 32.713 23.404 33.7449V34.0799C23.404 38.6226 27.0433 42.3183 31.5167 42.3183H32.4385C32.7221 42.3183 32.9519 42.0845 32.9519 41.7962C32.9519 41.5079 32.7221 41.2742 32.4385 41.2742H31.5167C27.6096 41.2742 24.4309 38.0469 24.4309 34.0799V33.7449C24.4309 32.6115 24.6906 31.5388 25.1521 30.5841C25.1763 30.5477 25.1956 30.5078 25.2103 30.4657C26.3865 28.142 28.7718 26.5486 31.5167 26.5486H37.938C41.8451 26.5486 45.0238 29.7769 45.0238 33.7449V34.0799C45.0238 36.1842 44.1094 38.1815 42.515 39.5596C42.5122 39.5621 42.5093 39.5646 42.5065 39.5672C42.3656 39.6945 42.3018 39.8726 42.3287 40.061L42.4701 42.7028L39.9818 41.4053L39.9663 41.397C39.7773 41.2956 39.6961 41.2742 39.4944 41.2742C39.4916 41.2742 39.4887 41.2742 39.4859 41.2742L34.8096 41.2743C34.526 41.2743 34.2962 41.508 34.2962 41.7963C34.2962 42.0846 34.526 42.3183 34.8096 42.3183H37.9378H39.483C39.4843 42.319 39.4857 42.3198 39.4871 42.3206L42.5471 43.9165C42.566 43.9264 42.5856 43.9351 42.6057 43.9425C42.7166 43.9836 42.8153 44 42.9022 44C43.0675 44 43.1903 43.9406 43.2736 43.8783C43.3759 43.8018 43.5451 43.6218 43.5289 43.2718L43.3639 40.1913C45.0746 38.6221 46.0506 36.4088 46.0506 34.0799V33.7449C46.0506 29.2012 42.4113 25.5046 37.938 25.5046Z" fill="#A31F34"></path></svg> 