<?xml version="1.0" encoding="UTF-8"?> <svg xmlns="http://www.w3.org/2000/svg" width="82" height="82" viewBox="0 0 82 82" fill="none"><rect x="0.5" y="0.5" width="81" height="81" rx="40.5" fill="white" stroke="black"></rect><path d="M24.1523 29.8105C23.6672 29.8105 23.2734 30.2043 23.2734 30.6895C23.2734 31.1746 23.6672 31.5684 24.1523 31.5684C24.6375 31.5684 25.0312 31.1746 25.0312 30.6895C25.0312 30.2043 24.6375 29.8105 24.1523 29.8105Z" fill="#A31F34"></path><path d="M62.1211 29.8105H51.3105C50.8252 29.8105 50.4316 30.204 50.4316 30.6895V40.6211H40.2363C39.751 40.6211 39.3574 41.0146 39.3574 41.5V51.4316H29.4258H18.8789C18.3935 51.4316 18 51.8251 18 52.3105V63.1211C18 63.6065 18.3935 64 18.8789 64H29.4258H40.2363H51.3105H62.1211C62.6064 64 63 63.6065 63 63.1211V52.3105V41.5V30.6895C63 30.204 62.6064 29.8105 62.1211 29.8105ZM28.5469 62.2422H19.7578V53.1895H28.5469V62.2422ZM39.3574 62.2422H30.3047V53.1895H39.3574V62.2422ZM50.4316 62.2422H41.1152V53.1895H50.4316V62.2422ZM50.4316 51.4316H41.1152V42.3789H50.4316V51.4316ZM61.2422 62.2422H52.1895V53.1895H61.2422V62.2422ZM61.2422 51.4316H52.1895V42.3789H61.2422V51.4316ZM61.2422 40.6211H52.1895V31.5684H61.2422V40.6211Z" fill="#A31F34"></path><path d="M40.2363 19H29.4258H18.8789C18.3935 19 18 19.3935 18 19.8789V30.6895V41.5C18 41.9854 18.3935 42.3789 18.8789 42.3789H29.4258C29.9112 42.3789 30.3047 41.9854 30.3047 41.5V31.5684H40.2363C40.7217 31.5684 41.1152 31.1749 41.1152 30.6895V19.8789C41.1152 19.3935 40.7217 19 40.2363 19ZM28.5469 29.8105H27.4025C26.9171 29.8105 26.5236 30.204 26.5236 30.6895C26.5236 31.1749 26.9171 31.5684 27.4025 31.5684H28.5469V40.6211H19.7578V31.5684H20.8679C21.3533 31.5684 21.7468 31.1749 21.7468 30.6895C21.7468 30.204 21.3533 29.8105 20.8679 29.8105H19.7578V20.7578H28.5469V29.8105ZM39.3574 29.8105H30.3047V20.7578H39.3574V29.8105Z" fill="#A31F34"></path></svg> 