<?xml version="1.0" encoding="UTF-8"?> <svg xmlns="http://www.w3.org/2000/svg" width="82" height="82" viewBox="0 0 82 82" fill="none"><rect x="0.5" y="0.5" width="81" height="81" rx="40.5" fill="white" stroke="black"></rect><path d="M64.8293 54.5776C65.7401 53.7372 66.3215 52.5441 66.3215 51.21V49.3713C66.3215 46.8368 64.2592 44.7746 61.7248 44.7746C59.5054 44.7746 57.6484 46.357 57.2206 48.452H54.2009C53.8202 47.3845 52.8088 46.6133 51.6121 46.6133C50.4149 46.6133 49.4035 47.3845 49.0229 48.452H46.0032C45.6364 46.6537 44.2166 45.2343 42.4187 44.8675V42.8053C44.0006 42.3946 45.1767 40.9675 45.1767 39.2586H46.0961C46.6042 39.2586 47.0154 38.8479 47.0154 38.3393V35.5813H48.8541V33.7426H47.0154V33.7327C47.0154 31.9739 47.849 30.2453 49.3025 28.9933C51.9384 26.7196 53.4508 23.4248 53.4508 19.9526C53.4508 16.6689 52.1458 13.6074 49.777 11.332C47.4095 9.05655 44.2803 7.86878 41.0065 8.01152C34.801 8.26156 29.6607 13.5208 29.5498 19.7348C29.4861 23.2519 30.9692 26.602 33.6186 28.9264C35.0766 30.204 35.9241 31.952 35.974 33.7426H34.1447V35.5813H35.9834V38.3393C35.9834 38.8479 36.3941 39.2586 36.9027 39.2586H37.8221C37.8221 40.9675 38.9977 42.3946 40.5801 42.8053V44.8675C38.7818 45.2343 37.3624 46.6537 36.9952 48.452H33.9755C33.5948 47.3845 32.5835 46.6133 31.3867 46.6133C30.1895 46.6133 29.1782 47.3845 28.7975 48.452H25.7778C25.35 46.357 23.4938 44.7746 21.274 44.7746C18.7391 44.7746 16.6773 46.8368 16.6773 49.3713V51.21C16.6773 52.5441 17.2582 53.7372 18.169 54.5776C15.1417 55.8084 13 58.7779 13 62.242V64.0807C13 64.5893 13.4107 65 13.9193 65H28.6287C29.1369 65 29.548 64.5893 29.548 64.0807V62.242C29.548 58.7779 27.4059 55.8084 24.3786 54.5776C25.2894 53.7372 25.8707 52.5441 25.8707 51.21V50.2906H28.7975C29.1782 51.3581 30.1895 52.1293 31.3867 52.1293C32.5835 52.1293 33.5948 51.3581 33.9755 50.2906H36.9027V51.21C36.9027 52.5441 37.4836 53.7372 38.3944 54.5776C35.3671 55.8084 33.2254 58.7779 33.2254 62.242V64.0807C33.2254 64.5893 33.6361 65 34.1447 65H48.8541C49.3622 65 49.7734 64.5893 49.7734 64.0807V62.242C49.7734 58.7779 47.6313 55.8084 44.604 54.5776C45.5148 53.7372 46.0961 52.5441 46.0961 51.21V50.2906H49.0229C49.4035 51.3581 50.4149 52.1293 51.6121 52.1293C52.8088 52.1293 53.8202 51.3581 54.2009 50.2906H57.1281V51.21C57.1281 52.5441 57.709 53.7372 58.6198 54.5776C55.5924 55.8084 53.4508 58.7779 53.4508 62.242V64.0807C53.4508 64.5893 53.8615 65 54.3701 65H69.0795C69.5876 65 69.9988 64.5893 69.9988 64.0807V62.242C69.9988 58.7779 67.8567 55.8084 64.8293 54.5776ZM27.7094 62.242V63.1613H25.8707V61.3227H24.032V63.1613H18.516V61.3227H16.6773V63.1613H14.8387V62.242C14.8387 58.6944 17.726 55.8066 21.274 55.8066C24.8216 55.8066 27.7094 58.6944 27.7094 62.242ZM18.516 51.21V49.3713C18.516 47.8509 19.7532 46.6133 21.274 46.6133C22.7944 46.6133 24.032 47.8509 24.032 49.3713V51.21C24.032 52.7304 22.7944 53.968 21.274 53.968C19.7532 53.968 18.516 52.7304 18.516 51.21ZM31.3867 50.2906C30.879 50.2906 30.4674 49.879 30.4674 49.3713C30.4674 48.864 30.879 48.452 31.3867 48.452C31.894 48.452 32.306 48.864 32.306 49.3713C32.306 49.879 31.894 50.2906 31.3867 50.2906ZM34.8302 27.5434C32.5888 25.5772 31.3342 22.7429 31.3885 19.7667C31.4832 14.5093 35.8308 10.0598 41.0801 9.84795C43.8848 9.74605 46.5005 10.7345 48.5026 12.6585C50.5078 14.5829 51.6121 17.1744 51.6121 19.9526C51.6121 22.8897 50.3323 25.6773 48.1017 27.5995C46.2429 29.2029 45.1767 31.438 45.1767 33.7327V33.7426H37.8126C37.7628 31.4232 36.6873 29.1706 34.8302 27.5434ZM45.1767 35.5813V37.4199H37.8221V35.5813H45.1767ZM39.6607 39.2586H43.3381C43.3381 40.2727 42.513 41.0973 41.4994 41.0973C40.4853 41.0973 39.6607 40.2727 39.6607 39.2586ZM47.9347 62.242V63.1613H46.0961V61.3227H44.2574V63.1613H38.7414V61.3227H36.9027V63.1613H35.0641V62.242C35.0641 58.6944 37.9513 55.8066 41.4994 55.8066C45.047 55.8066 47.9347 58.6944 47.9347 62.242ZM38.7414 51.21V49.3713C38.7414 47.8509 39.9785 46.6133 41.4994 46.6133C43.0198 46.6133 44.2574 47.8509 44.2574 49.3713V51.21C44.2574 52.7304 43.0198 53.968 41.4994 53.968C39.9785 53.968 38.7414 52.7304 38.7414 51.21ZM51.6121 50.2906C51.1044 50.2906 50.6928 49.879 50.6928 49.3713C50.6928 48.864 51.1044 48.452 51.6121 48.452C52.1193 48.452 52.5314 48.864 52.5314 49.3713C52.5314 49.879 52.1193 50.2906 51.6121 50.2906ZM58.9668 51.21V49.3713C58.9668 47.8509 60.2039 46.6133 61.7248 46.6133C63.2452 46.6133 64.4828 47.8509 64.4828 49.3713V51.21C64.4828 52.7304 63.2452 53.968 61.7248 53.968C60.2039 53.968 58.9668 52.7304 58.9668 51.21ZM68.1601 63.1613H66.3215V61.3227H64.4828V63.1613H58.9668V61.3227H57.1281V63.1613H55.2894V62.242C55.2894 58.6944 58.1767 55.8066 61.7248 55.8066C65.2724 55.8066 68.1601 58.6944 68.1601 62.242V63.1613Z" fill="#A31F34"></path><path d="M39.6606 30.0653H43.3381V31.904H39.6606V30.0653Z" fill="#A31F34"></path><path d="M40.58 24.4563V26.3879H42.4186V24.4563C43.004 24.3369 43.5485 24.1035 44.0302 23.7834L45.446 25.1992L46.7455 23.8992L45.3302 22.4834C45.6498 22.0018 45.8832 21.4577 46.0031 20.8719H47.9347V19.0332H46.0031C45.8832 18.4474 45.6498 17.9034 45.3302 17.4217L46.7455 16.0059L45.446 14.7059L44.0302 16.1217C43.5485 15.8016 43.004 15.5682 42.4186 15.4488V13.5172H40.58V15.4488C39.9942 15.5682 39.4501 15.8016 38.968 16.1217L37.5522 14.7059L36.2526 16.0059L37.6684 17.4217C37.3484 17.9034 37.115 18.4474 36.9951 19.0332H35.064V20.8719H36.9951C37.115 21.4577 37.3484 22.0018 37.6684 22.4834L36.2526 23.8992L37.5522 25.1992L38.968 23.7834C39.4501 24.1035 39.9942 24.3369 40.58 24.4563ZM41.4993 17.1946C43.0197 17.1946 44.2573 18.4322 44.2573 19.9526C44.2573 21.473 43.0197 22.7106 41.4993 22.7106C39.9785 22.7106 38.7413 21.473 38.7413 19.9526C38.7413 18.4322 39.9785 17.1946 41.4993 17.1946Z" fill="#A31F34"></path></svg> 