<?xml version="1.0" encoding="UTF-8"?> <svg xmlns="http://www.w3.org/2000/svg" width="82" height="82" viewBox="0 0 82 82" fill="none"><rect x="0.5" y="0.5" width="81" height="81" rx="40.5" fill="white" stroke="black"></rect><path d="M41.0056 16H40.9747C32.3863 16.0542 25.2292 22.5937 24.4025 31.1424C23.9989 35.6808 25.0224 38.6093 27.0522 42.4267C27.6801 43.5372 28.3976 44.5946 29.1972 45.5883C29.7465 46.3082 30.2642 46.9883 30.725 47.715C31.7641 49.3576 32.4195 51.2139 32.6415 53.1449C31.4811 53.8239 30.8463 55.1369 31.0344 56.4678C31.2224 57.7992 32.1967 58.8844 33.4998 59.2152V62.6667C33.5025 63.81 34.0918 64.872 35.0608 65.4793C35.11 65.5125 35.1622 65.5403 35.2176 65.5625C35.7093 65.8455 36.2658 65.9962 36.8331 66H45.1667C47.0076 66 48.5 64.5077 48.5 62.6667V59.2152C49.8092 58.8856 50.7876 57.7946 50.9726 56.4572C51.1576 55.1197 50.5122 53.804 49.3415 53.1315C49.5662 51.2051 50.2215 49.3542 51.2584 47.715C51.7192 46.9883 52.2364 46.3082 52.7858 45.5883C53.5853 44.5946 54.3029 43.5372 54.9308 42.4267C56.9598 38.6101 57.9841 35.6815 57.5816 31.1424C56.7538 22.5926 49.5951 16.053 41.0056 16ZM35.6089 63.7882C35.3255 63.4834 35.1676 63.0829 35.1664 62.6667V59.3334H43.1872L35.6089 63.7882ZM46.8333 62.6667C46.8333 63.5872 46.0872 64.3334 45.1667 64.3334H37.9714L46.4766 59.3334H46.8333V62.6667ZM47.6664 57.6668H34.3333C33.4128 57.6668 32.6667 56.9206 32.6667 56.0002C32.6667 55.0797 33.4128 54.3335 34.3333 54.3335H47.6664C48.5869 54.3335 49.3331 55.0797 49.3331 56.0002C49.3331 56.9206 48.5869 57.6668 47.6664 57.6668ZM37.6666 37.6667H35.1664C34.246 37.6667 33.4998 36.9206 33.4998 36.0001C33.4998 35.0796 34.246 34.3334 35.1664 34.3334H36C36.9204 34.3334 37.6666 35.0796 37.6666 36.0001V37.6667ZM40.9999 39.3334H42.6665V52.6665H39.3332V39.3334H40.9999ZM53.4564 41.6432C52.8708 42.6743 52.2021 43.6554 51.4567 44.5774C50.9108 45.2942 50.3466 46.035 49.8473 46.8224C48.7258 48.5951 47.9987 50.5882 47.7156 52.6665H44.3332V39.3334H46.8333C48.6743 39.3334 50.1666 37.841 50.1666 36.0001C50.1666 34.1591 48.6743 32.6668 46.8333 32.6668H45.9998C44.1588 32.6668 42.6665 34.1591 42.6665 36.0001V37.6667H39.3332V36.0001C39.3332 34.1591 37.8409 32.6668 36 32.6668H35.1664C33.3255 32.6668 31.8332 34.1591 31.8332 36.0001C31.8332 37.841 33.3255 39.3334 35.1664 39.3334H37.6666V52.6665H34.265C33.9816 50.5882 33.2545 48.5951 32.1322 46.8224C31.6325 46.035 31.0691 45.2942 30.5232 44.5774C29.7778 43.6554 29.1091 42.6743 28.5231 41.6432C26.6017 38.0299 25.69 35.4366 26.0615 31.2901C26.7661 23.5714 33.2389 17.6628 40.9896 17.6628C48.7403 17.6628 55.2127 23.5714 55.9172 31.2901C56.2865 35.4374 55.3782 38.031 53.4564 41.6432ZM44.3332 37.6667V36.0001C44.3332 35.0796 45.0793 34.3334 45.9998 34.3334H46.8333C47.7538 34.3334 48.5 35.0796 48.5 36.0001C48.5 36.9206 47.7538 37.6667 46.8333 37.6667H44.3332Z" fill="#A31F34"></path><path d="M40.9923 19.3333C34.1499 19.4446 28.4607 24.6338 27.7225 31.4373C27.6821 31.8958 28.0208 32.3002 28.479 32.341H28.5534C28.9859 32.3425 29.348 32.0125 29.3865 31.5815C30.0357 25.6336 35.0097 21.0983 40.9923 20.9999C41.4528 20.9999 41.8258 20.6268 41.8258 20.1668C41.8258 19.7063 41.4528 19.3333 40.9923 19.3333Z" fill="#A31F34"></path><path d="M16 32.6668C16 33.1268 16.3731 33.4999 16.8335 33.4999H20.9999C21.4604 33.4999 21.8334 33.1268 21.8334 32.6668C21.8334 32.2063 21.4604 31.8333 20.9999 31.8333H16.8335C16.3731 31.8333 16 32.2063 16 32.6668Z" fill="#A31F34"></path><path d="M23.2631 41.945L19.6548 44.0286C19.395 44.1762 19.234 44.452 19.2336 44.7511C19.2329 45.0502 19.3923 45.3263 19.6517 45.4755C19.9111 45.6243 20.2304 45.6231 20.4883 45.4717L24.0966 43.3885C24.4918 43.1569 24.6257 42.6496 24.3968 42.2528C24.168 41.8561 23.6614 41.7188 23.2631 41.945Z" fill="#A31F34"></path><path d="M57.5994 42.2501C57.3693 42.6488 57.5055 43.1584 57.9042 43.3885L61.5125 45.4717C61.9107 45.6982 62.4169 45.5605 62.6462 45.1638C62.8751 44.7675 62.7412 44.2601 62.346 44.0286L58.7377 41.945C58.339 41.7149 57.8294 41.8515 57.5994 42.2501Z" fill="#A31F34"></path><path d="M65.1664 31.8333H61C60.5396 31.8333 60.1665 32.2063 60.1665 32.6668C60.1665 33.1268 60.5396 33.4999 61 33.4999H65.1664C65.6269 33.4999 65.9999 33.1268 65.9999 32.6668C65.9999 32.2063 65.6269 31.8333 65.1664 31.8333Z" fill="#A31F34"></path><path d="M62.6498 20.1668C62.4198 19.7681 61.9102 19.6316 61.5115 19.8616L57.9032 21.9448C57.6434 22.0928 57.4825 22.3686 57.4817 22.6677C57.4813 22.9668 57.6408 23.2429 57.9002 23.3921C58.1592 23.5409 58.4785 23.5397 58.7367 23.3883L62.345 21.3051C62.7433 21.0747 62.8799 20.565 62.6498 20.1668Z" fill="#A31F34"></path><path d="M24.096 21.9448L20.4876 19.8616C20.0894 19.6354 19.5832 19.7727 19.3539 20.1695C19.125 20.5662 19.2589 21.0732 19.6541 21.3051L23.2624 23.3883C23.5203 23.5398 23.8396 23.5409 24.099 23.3921C24.3584 23.243 24.5179 22.9668 24.5175 22.6677C24.5167 22.3686 24.3557 22.0928 24.096 21.9448Z" fill="#A31F34"></path></svg> 