<svg xmlns="http://www.w3.org/2000/svg" viewBox="0 0 209.07 61.67"><g id="Layer_2" data-name="Layer 2"><g id="Capa_1" data-name="Capa 1"><path d="M33.76 55a3.24 3.24 0 0 1 1.09.17 2.79 2.79 0 0 1 .79.41 1.84 1.84 0 0 1 .47.55 1.34 1.34 0 0 1 .18.57.21.21 0 0 1-.07.18.24.24 0 0 1-.22.12h-.6a.38.38 0 0 1-.24-.06.73.73 0 0 1-.14-.16 1.08 1.08 0 0 0-.42-.4 1.59 1.59 0 0 0-.84-.18 1.63 1.63 0 0 0-.45.06 1.31 1.31 0 0 0-.38.14 1 1 0 0 0-.26.24.54.54 0 0 0-.09.31.63.63 0 0 0 .09.35.78.78 0 0 0 .29.23 4.45 4.45 0 0 0 .55.18l.85.19a7 7 0 0 1 1 .28 2.24 2.24 0 0 1 .65.39 1.45 1.45 0 0 1 .38.52 1.79 1.79 0 0 1 .13.68 1.72 1.72 0 0 1-.19.77 1.88 1.88 0 0 1-.52.61 2.73 2.73 0 0 1-.84.4 3.94 3.94 0 0 1-1.12.15 4 4 0 0 1-1-.13 2.71 2.71 0 0 1-.83-.36 2 2 0 0 1-.59-.57 1.45 1.45 0 0 1-.25-.73.22.22 0 0 1 .07-.19.28.28 0 0 1 .18-.06h.65a.43.43 0 0 1 .24 0 .39.39 0 0 1 .13.17l.16.24a.87.87 0 0 0 .25.21 1.76 1.76 0 0 0 .39.15 2.49 2.49 0 0 0 .59.06 3.08 3.08 0 0 0 .53 0 1.46 1.46 0 0 0 .46-.14.83.83 0 0 0 .31-.24.51.51 0 0 0 .12-.35.45.45 0 0 0-.13-.34 1.18 1.18 0 0 0-.39-.22 5 5 0 0 0-.65-.17l-.9-.21a5.32 5.32 0 0 1-.8-.27 1.86 1.86 0 0 1-.58-.37 1.36 1.36 0 0 1-.33-.52 2 2 0 0 1-.11-.72 1.68 1.68 0 0 1 .63-1.38 2.44 2.44 0 0 1 .77-.4 3.32 3.32 0 0 1 .99-.16zm3.78 2.52a3.1 3.1 0 0 1 .2-1 2.21 2.21 0 0 1 .5-.8 2.42 2.42 0 0 1 .83-.53 3.24 3.24 0 0 1 1.18-.2 3.18 3.18 0 0 1 1.17.2 2.16 2.16 0 0 1 .83.53 2.44 2.44 0 0 1 .51.79 2.9 2.9 0 0 1 .2 1v1.65a3.16 3.16 0 0 1-.19 1 2.34 2.34 0 0 1-.51.79 2.28 2.28 0 0 1-.83.53 3.28 3.28 0 0 1-1.18.2 3.24 3.24 0 0 1-1.18-.2 2.28 2.28 0 0 1-.83-.53 2.17 2.17 0 0 1-.5-.79 3.17 3.17 0 0 1-.2-1V57.9a2.41 2.41 0 0 1 0-.38zm4.18 0a1.46 1.46 0 0 0-.43-1 1.65 1.65 0 0 0-2.08 0 1.46 1.46 0 0 0-.43 1v1.56a1.46 1.46 0 0 0 .43 1 1.68 1.68 0 0 0 2.08 0 1.46 1.46 0 0 0 .43-1v-.78c0-.28.01-.5 0-.73zm6.98 2.9a.24.24 0 0 1 .25.25v.65a.24.24 0 0 1-.25.25h-4a.22.22 0 0 1-.17-.07.25.25 0 0 1-.08-.18v-6a.28.28 0 0 1 .25-.25h.75a.28.28 0 0 1 .25.25v5.06zm6.23-5.31a.25.25 0 0 1 .18.08.22.22 0 0 1 .07.17v3.79a3.05 3.05 0 0 1-.16 1 2.09 2.09 0 0 1-.5.79 2.26 2.26 0 0 1-.83.52 3.45 3.45 0 0 1-1.16.18 3.41 3.41 0 0 1-1.16-.18 2.3 2.3 0 0 1-.82-.52 2 2 0 0 1-.49-.79 3 3 0 0 1-.17-1v-3.79a.23.23 0 0 1 .08-.17.25.25 0 0 1 .17-.08h.75a.25.25 0 0 1 .18.08.26.26 0 0 1 .07.17v3.74a1.81 1.81 0 0 0 .1.65 1.09 1.09 0 0 0 .29.43 1 1 0 0 0 .44.25 1.69 1.69 0 0 0 .56.08 1.71 1.71 0 0 0 .57-.08 1 1 0 0 0 .45-.25 1.21 1.21 0 0 0 .29-.43 1.8 1.8 0 0 0 .16-.65v-3.74a.22.22 0 0 1 .07-.17.25.25 0 0 1 .17-.08zm5.84 4.41a.32.32 0 0 1 .1-.18.27.27 0 0 1 .17-.06h.75a.29.29 0 0 1 .18.07.24.24 0 0 1 .07.18 2.3 2.3 0 0 1-.19.76 2 2 0 0 1-.49.68 2.68 2.68 0 0 1-.84.5 3.44 3.44 0 0 1-1.23.2 3.26 3.26 0 0 1-1.13-.19 2.46 2.46 0 0 1-.83-.53 2.28 2.28 0 0 1-.53-.81 3.31 3.31 0 0 1-.22-1v-1.55a3.44 3.44 0 0 1 .22-1 2.33 2.33 0 0 1 .53-.8 2.46 2.46 0 0 1 .83-.53 3 3 0 0 1 1.13-.26 3.44 3.44 0 0 1 1.23.2 2.66 2.66 0 0 1 .84.49 2.14 2.14 0 0 1 .49.69 2.44 2.44 0 0 1 .19.75.21.21 0 0 1-.07.18.24.24 0 0 1-.18.07H61a.27.27 0 0 1-.17-.06.28.28 0 0 1-.11-.18 1 1 0 0 0-.12-.36 1.16 1.16 0 0 0-.28-.31 1.66 1.66 0 0 0-.44-.23 2 2 0 0 0-.63-.09 1.54 1.54 0 0 0-.63.12 1.29 1.29 0 0 0-.45.29 1.16 1.16 0 0 0-.27.44 1.75 1.75 0 0 0-.12.55v1.55a1.64 1.64 0 0 0 .12.55 1.25 1.25 0 0 0 .27.44 1.29 1.29 0 0 0 .45.29 1.54 1.54 0 0 0 .63.11 2 2 0 0 0 .63-.09 1.4 1.4 0 0 0 .44-.22 1.1 1.1 0 0 0 .29-.32.9.9 0 0 0 .16-.34zm2.83 2.05a.24.24 0 0 1-.25-.25v-6a.22.22 0 0 1 .07-.17.25.25 0 0 1 .18-.08h.75a.25.25 0 0 1 .17.08.22.22 0 0 1 .07.17v6a.24.24 0 0 1-.07.18.23.23 0 0 1-.17.07zm2.4-4.05a3.42 3.42 0 0 1 .2-1 2.21 2.21 0 0 1 .5-.8 2.46 2.46 0 0 1 .84-.53 3.55 3.55 0 0 1 2.35 0 2.16 2.16 0 0 1 .83.53 2.44 2.44 0 0 1 .51.79 3.48 3.48 0 0 1 .2 1v1.65a3.48 3.48 0 0 1-.2 1 2.17 2.17 0 0 1-.5.79 2.24 2.24 0 0 1-.84.53 3.55 3.55 0 0 1-2.35 0 2.32 2.32 0 0 1-.84-.53 2.17 2.17 0 0 1-.5-.79 3.48 3.48 0 0 1-.2-1v-1.64zm4.18 0a1.39 1.39 0 0 0-.43-1 1.46 1.46 0 0 0-1-.37 1.48 1.48 0 0 0-1 .37 1.42 1.42 0 0 0-.43 1v1.56a1.42 1.42 0 0 0 .43 1 1.48 1.48 0 0 0 1 .36 1.45 1.45 0 0 0 1-.36 1.38 1.38 0 0 0 .43-1v-.78c0-.28.06-.5.04-.73zm6.93 4.05a.29.29 0 0 1-.24-.08l-.12-.13-2.59-3.84v3.8a.24.24 0 0 1-.25.25h-.74a.24.24 0 0 1-.25-.25v-6a.22.22 0 0 1 .07-.17.25.25 0 0 1 .18-.08h.64a.3.3 0 0 1 .24.09.46.46 0 0 1 .12.13l2.59 3.83v-3.8a.22.22 0 0 1 .07-.17.25.25 0 0 1 .18-.08h.74a.25.25 0 0 1 .18.08.22.22 0 0 1 .07.17v6a.24.24 0 0 1-.25.25zM84 60.42a.24.24 0 0 1 .25.25v.65a.24.24 0 0 1-.25.25h-4a.22.22 0 0 1-.17-.07.25.25 0 0 1-.08-.18v-6a.28.28 0 0 1 .25-.25h4a.25.25 0 0 1 .18.08.26.26 0 0 1 .07.17V56a.26.26 0 0 1-.07.17.25.25 0 0 1-.18.08h-3v1.46h2.7a.28.28 0 0 1 .3.29v.66a.23.23 0 0 1-.08.17.25.25 0 0 1-.17.08h-2.83v1.53zM87.81 55a3.28 3.28 0 0 1 1.09.17 2.79 2.79 0 0 1 .79.41 1.84 1.84 0 0 1 .47.55 1.34 1.34 0 0 1 .18.57.21.21 0 0 1-.07.18.24.24 0 0 1-.18.07h-.64a.38.38 0 0 1-.24-.06.73.73 0 0 1-.14-.16 1.08 1.08 0 0 0-.42-.4 1.59 1.59 0 0 0-.84-.18 1.63 1.63 0 0 0-.45.06 1.21 1.21 0 0 0-.38.14 1 1 0 0 0-.26.24.54.54 0 0 0-.09.31.63.63 0 0 0 .09.35.78.78 0 0 0 .29.23 4.45 4.45 0 0 0 .55.18l.85.19a7 7 0 0 1 1 .28 2.24 2.24 0 0 1 .65.39 1.45 1.45 0 0 1 .38.52 1.79 1.79 0 0 1 .13.68 1.72 1.72 0 0 1-.19.77 1.8 1.8 0 0 1-.53.61 2.57 2.57 0 0 1-.83.4 4 4 0 0 1-2.11 0 2.71 2.71 0 0 1-.83-.36 2 2 0 0 1-.59-.57 1.45 1.45 0 0 1-.25-.73.22.22 0 0 1 .07-.19.28.28 0 0 1 .18-.06h.65a.43.43 0 0 1 .24 0 .39.39 0 0 1 .13.17l.16.24a.87.87 0 0 0 .25.21 1.59 1.59 0 0 0 .39.15 2.43 2.43 0 0 0 .59.06 3.08 3.08 0 0 0 .53 0 1.46 1.46 0 0 0 .46-.14.83.83 0 0 0 .31-.24.51.51 0 0 0 .12-.35.45.45 0 0 0-.13-.34 1.18 1.18 0 0 0-.39-.22 5 5 0 0 0-.65-.17l-.9-.21a5.32 5.32 0 0 1-.8-.27 1.75 1.75 0 0 1-.58-.37 1.36 1.36 0 0 1-.33-.52 2 2 0 0 1-.11-.72 1.68 1.68 0 0 1 .69-1.36 2.44 2.44 0 0 1 .77-.4 3.32 3.32 0 0 1 .92-.11zm8.86.11a3.55 3.55 0 0 1 1.19.18 2.25 2.25 0 0 1 .84.52 2.2 2.2 0 0 1 .51.8 3.37 3.37 0 0 1 .22 1 10.44 10.44 0 0 1 0 1.37 3.5 3.5 0 0 1-.22 1 2.16 2.16 0 0 1-1.33 1.31 3.41 3.41 0 0 1-1.16.18h-2.33a.22.22 0 0 1-.17-.07.25.25 0 0 1-.08-.18v-6a.28.28 0 0 1 .25-.25zm1.51 2.55a1.92 1.92 0 0 0-.11-.55 1.09 1.09 0 0 0-.29-.44 1.19 1.19 0 0 0-.47-.3 2 2 0 0 0-.68-.1h-1.24v4.15h1.28a1.9 1.9 0 0 0 .66-.11 1.29 1.29 0 0 0 .46-.29 1.18 1.18 0 0 0 .28-.44 2 2 0 0 0 .11-.55 10.44 10.44 0 0 0 0-1.37zm6.99 2.76a.24.24 0 0 1 .18.07.29.29 0 0 1 .07.18v.65a.29.29 0 0 1-.07.18.24.24 0 0 1-.18.07h-4a.24.24 0 0 1-.25-.25v-6a.22.22 0 0 1 .07-.17.25.25 0 0 1 .18-.08h4a.25.25 0 0 1 .17.08.23.23 0 0 1 .08.17V56a.23.23 0 0 1-.08.17.25.25 0 0 1-.17.08h-3v1.46h2.77a.25.25 0 0 1 .18.08.23.23 0 0 1 .07.17v.66a.22.22 0 0 1-.07.17.25.25 0 0 1-.18.08h-2.77v1.53zm8.25 0a.24.24 0 0 1 .25.25v.65a.24.24 0 0 1-.25.25h-4a.24.24 0 0 1-.25-.25v-6a.22.22 0 0 1 .07-.17.25.25 0 0 1 .18-.08h.75a.25.25 0 0 1 .17.08.23.23 0 0 1 .08.17v5.06zm4.4-5.31a.29.29 0 0 1 .22.08.54.54 0 0 1 .13.24l2.26 5.83a.13.13 0 0 1 0 .06.24.24 0 0 1-.25.25h-.66a.33.33 0 0 1-.26-.08.44.44 0 0 1-.1-.15l-.4-1h-2.91l-.4 1a.44.44 0 0 1-.1.15.33.33 0 0 1-.26.08h-.66a.24.24 0 0 1-.25-.25.13.13 0 0 1 0-.06l2.26-5.83a.54.54 0 0 1 .13-.24.29.29 0 0 1 .22-.08zm.51 4l-1-2.63-1 2.63zm3.43 2.46a.23.23 0 0 1-.17-.07.25.25 0 0 1-.08-.18v-6a.23.23 0 0 1 .08-.17.25.25 0 0 1 .17-.08h2.73a2.35 2.35 0 0 1 1 .18 1.73 1.73 0 0 1 .64.46 1.77 1.77 0 0 1 .35.59 1.87 1.87 0 0 1 .1.59 1.55 1.55 0 0 1-.07.5 1.51 1.51 0 0 1-.18.36 1.48 1.48 0 0 1-.21.26l-.17.14a2 2 0 0 1 .52.55 1.54 1.54 0 0 1 .24.9 2 2 0 0 1-.51 1.32 1.78 1.78 0 0 1-.62.44 2 2 0 0 1-.86.17zm3.56-4.57a.63.63 0 0 0-.23-.53 1.09 1.09 0 0 0-.7-.18h-1.63v1.42h1.63a1.09 1.09 0 0 0 .7-.18.65.65 0 0 0 .23-.53zm-2.56 3.44h1.71a1 1 0 0 0 .74-.22.71.71 0 0 0 .24-.56.76.76 0 0 0-.25-.58 1.1 1.1 0 0 0-.73-.22h-1.71zm5.09-2.92a3.42 3.42 0 0 1 .2-1 2.24 2.24 0 0 1 .51-.8 2.32 2.32 0 0 1 .83-.53 3.55 3.55 0 0 1 2.35 0 2.16 2.16 0 0 1 .83.53 2.44 2.44 0 0 1 .51.79 3.48 3.48 0 0 1 .2 1v1.65a3.17 3.17 0 0 1-.2 1 2.17 2.17 0 0 1-.5.79 2.24 2.24 0 0 1-.84.53 3.55 3.55 0 0 1-2.35 0 2.26 2.26 0 0 1-1.34-1.32 3.48 3.48 0 0 1-.2-1V57.9c-.01-.13 0-.26 0-.38zm4.18 0a1.42 1.42 0 0 0-.42-1 1.5 1.5 0 0 0-1-.37 1.48 1.48 0 0 0-1 .37 1.42 1.42 0 0 0-.43 1v1.56a1.42 1.42 0 0 0 .43 1 1.48 1.48 0 0 0 1 .36 1.5 1.5 0 0 0 1-.36 1.41 1.41 0 0 0 .42-1v-.78c0-.28.02-.5-.03-.73zm5.33-2.41a2.53 2.53 0 0 1 1.75.54 1.89 1.89 0 0 1 .6 1.48 2 2 0 0 1-.31 1.15 1.77 1.77 0 0 1-.91.71l1.28 2.28a.22.22 0 0 1 0 .1.18.18 0 0 1-.06.14.22.22 0 0 1-.15.06h-.78a.38.38 0 0 1-.27-.08.86.86 0 0 1-.13-.17l-1.21-2.15H136v2.15a.24.24 0 0 1-.07.18.23.23 0 0 1-.17.07H135a.24.24 0 0 1-.25-.25v-6a.22.22 0 0 1 .07-.17.25.25 0 0 1 .18-.08zM136 58h1.34a1.69 1.69 0 0 0 .84-.18.76.76 0 0 0 .32-.71.73.73 0 0 0-.32-.69 1.81 1.81 0 0 0-.84-.17H136zm8.18-2.89a.29.29 0 0 1 .22.08.66.66 0 0 1 .13.24l2.26 5.83a.13.13 0 0 1 0 .06.29.29 0 0 1-.07.18.24.24 0 0 1-.18.07h-.66a.31.31 0 0 1-.26-.08.33.33 0 0 1-.1-.15l-.4-1h-2.92l-.39 1a.48.48 0 0 1-.11.15c0 .06-.13.08-.25.08h-.67a.22.22 0 0 1-.17-.07.25.25 0 0 1-.08-.18v-.06l2.26-5.83a.66.66 0 0 1 .13-.24.29.29 0 0 1 .22-.08zm.51 4l-1-2.63-1 2.63zm6.83-4a.25.25 0 0 1 .17.08.22.22 0 0 1 .07.17V56a.22.22 0 0 1-.07.17.25.25 0 0 1-.17.08h-1.67v5a.24.24 0 0 1-.25.25h-.74a.24.24 0 0 1-.25-.25v-5H147a.25.25 0 0 1-.18-.08.22.22 0 0 1-.07-.17v-.66a.22.22 0 0 1 .07-.17.25.25 0 0 1 .18-.08zm1.05 2.41a3.1 3.1 0 0 1 .2-1 2.21 2.21 0 0 1 .5-.8 2.42 2.42 0 0 1 .83-.53 3.24 3.24 0 0 1 1.18-.2 3.18 3.18 0 0 1 1.17.2 2.16 2.16 0 0 1 .83.53 2.44 2.44 0 0 1 .51.79 3.17 3.17 0 0 1 .2 1v1.65a3.48 3.48 0 0 1-.19 1 2.34 2.34 0 0 1-.51.79 2.28 2.28 0 0 1-.83.53 3.28 3.28 0 0 1-1.18.2 3.24 3.24 0 0 1-1.18-.2 2.28 2.28 0 0 1-.83-.53 2.17 2.17 0 0 1-.5-.79 3.17 3.17 0 0 1-.2-1V57.9a2.41 2.41 0 0 1 0-.38zm4.18 0a1.46 1.46 0 0 0-.43-1 1.65 1.65 0 0 0-2.08 0 1.46 1.46 0 0 0-.43 1v1.56a1.46 1.46 0 0 0 .43 1 1.68 1.68 0 0 0 2.08 0 1.46 1.46 0 0 0 .43-1v-.78c0-.28.01-.5 0-.73zm5.32-2.41a2.56 2.56 0 0 1 1.76.54 1.89 1.89 0 0 1 .6 1.48 2.1 2.1 0 0 1-.31 1.15 1.82 1.82 0 0 1-.91.71l1.27 2.28a.22.22 0 0 1 0 .1.18.18 0 0 1-.06.14.2.2 0 0 1-.15.06h-.78a.41.41 0 0 1-.27-.08.86.86 0 0 1-.13-.17l-1.2-2.15h-1.23v2.15a.25.25 0 0 1-.08.18.22.22 0 0 1-.17.07h-.75a.21.21 0 0 1-.17-.07.25.25 0 0 1-.08-.18v-6a.23.23 0 0 1 .08-.17.21.21 0 0 1 .17-.08zM160.69 58H162a1.69 1.69 0 0 0 .84-.18.78.78 0 0 0 .31-.71.74.74 0 0 0-.31-.69 1.81 1.81 0 0 0-.84-.17h-1.34zm5.42 3.57a.24.24 0 0 1-.25-.25v-6a.22.22 0 0 1 .07-.17.25.25 0 0 1 .18-.08h.74a.25.25 0 0 1 .18.08.22.22 0 0 1 .07.17v6a.24.24 0 0 1-.25.25zm2.44-4.05a3.1 3.1 0 0 1 .2-1 2.21 2.21 0 0 1 .5-.8 2.42 2.42 0 0 1 .83-.53 3.24 3.24 0 0 1 1.18-.2 3.28 3.28 0 0 1 1.18.2 2.23 2.23 0 0 1 .83.53 2.26 2.26 0 0 1 .5.79 3.17 3.17 0 0 1 .21 1v1.65a3.48 3.48 0 0 1-.2 1 2.2 2.2 0 0 1-.51.79 2.28 2.28 0 0 1-.83.53 3.28 3.28 0 0 1-1.18.2 3.24 3.24 0 0 1-1.18-.2 2.28 2.28 0 0 1-.83-.53 2.17 2.17 0 0 1-.5-.79 3.17 3.17 0 0 1-.2-1V57.9c0-.14-.01-.26 0-.38zm4.18 0a1.42 1.42 0 0 0-.43-1 1.48 1.48 0 0 0-1-.37 1.46 1.46 0 0 0-1 .37 1.39 1.39 0 0 0-.43 1v1.56a1.38 1.38 0 0 0 .43 1 1.45 1.45 0 0 0 1 .36 1.48 1.48 0 0 0 1-.36 1.42 1.42 0 0 0 .43-1v-.78c0-.28.01-.5 0-.73zm34.09-44.2a2.36 2.36 0 0 1 1.62.5 1.73 1.73 0 0 1 .56 1.37 1.91 1.91 0 0 1-.29 1.06 1.65 1.65 0 0 1-.58.53.3.3 0 0 0-.1.41l1 1.81a.44.44 0 0 1 0 .1.21.21 0 0 1 0 .13.17.17 0 0 1-.13.05h-.73a.32.32 0 0 1-.25-.08.79.79 0 0 1-.12-.15l-1-1.83a.29.29 0 0 0-.25-.15h-.68a.29.29 0 0 0-.28.29v1.69a.26.26 0 0 1-.07.17.25.25 0 0 1-.16.06h-.69a.21.21 0 0 1-.23-.23v-5.5a.25.25 0 0 1 .06-.16.26.26 0 0 1 .17-.07zm-1.27 2.4a.29.29 0 0 0 .28.29h.95a1.61 1.61 0 0 0 .78-.17.7.7 0 0 0 .29-.65.67.67 0 0 0-.29-.64 1.61 1.61 0 0 0-.78-.16h-.95a.29.29 0 0 0-.28.29zM57.58 13.38h8.67a.32.32 0 0 1 .29.2l7.77 19.84a.31.31 0 0 0 .58 0l7.88-19.84a.3.3 0 0 1 .29-.2h8.55a.31.31 0 0 1 .29.43L78.64 45.63a.33.33 0 0 1-.29.19h-7.72a.32.32 0 0 1-.29-.19L57.29 13.81a.31.31 0 0 1 .29-.43zm37.02.34v31.79a.31.31 0 0 0 .31.31h7.74a.31.31 0 0 0 .31-.31V13.76a.3.3 0 0 0-.3-.31c-1.31 0-6.48-.11-7.77 0a.31.31 0 0 0-.29.27zm35.67 14.15a7.05 7.05 0 0 0 3.36-6.47 8.56 8.56 0 0 0-9-8h-17.16a.31.31 0 0 0-.31.31v31.8a.31.31 0 0 0 .31.31h18.89c.29 0 9.3-.89 9.3-9.69 0 0 .25-6.53-5.28-7.7a.31.31 0 0 1-.11-.56zm-14.73-7.33a.31.31 0 0 1 .31-.31h7.31a2.58 2.58 0 0 1 2.32 2.83 2.62 2.62 0 0 1-2.32 2.84h-7.31a.31.31 0 0 1-.31-.32zm8.52 18.34h-8.5a.31.31 0 0 1-.32-.31v-5.94a.31.31 0 0 1 .32-.31h8.5c1.54 0 2.67 1.47 2.67 3.29s-1.19 3.27-2.67 3.27zm38.72 6.94h8.63a.32.32 0 0 0 .29-.44l-13.53-31.87a.31.31 0 0 0-.28-.19h-7.6a.32.32 0 0 0-.29.19l-13.71 31.87a.32.32 0 0 0 .29.44H145a.33.33 0 0 0 .3-.2l2.49-6.31a.31.31 0 0 1 .29-.2h11.66a.31.31 0 0 1 .29.2l2.44 6.31a.3.3 0 0 0 .31.2zm-12.06-13.88l3-7.55a.31.31 0 0 1 .58 0l2.92 7.55a.31.31 0 0 1-.29.43H151a.32.32 0 0 1-.28-.43zm49.59-3.63v17.13a.31.31 0 0 1-.31.31h-15c-15.41-.9-14.22-17-14.22-17 0-16.21 16.1-15.52 16.1-15.52 12.44 0 13.46 9.11 13.53 11a.3.3 0 0 1-.31.32h-8.56a.31.31 0 0 1-.31-.3c0-1.11-.46-4.92-4.79-4.92 0 0-6.32-.69-6.32 8.59v3.55s-.35 8.51 6.09 8.51c0 0 6.43.47 6.22-6.23a.32.32 0 0 0-.32-.31h-5a.31.31 0 0 1-.32-.31v-4.89a.32.32 0 0 1 .32-.31L200 28a.31.31 0 0 1 .31.31zM26.27 0h-2.69C10.92 0 0 10.35 0 23a23.07 23.07 0 0 0 23 23h25.64a.31.31 0 0 0 .31-.32V23C49 10.78 38.34.71 26.27 0zm11.65 42.35a.31.31 0 0 1-.3.3H18.4a.28.28 0 0 1-.27-.19l-1.38-3.26a.29.29 0 0 1 .2-.4L21 37.74l-.93-.65a11.85 11.85 0 0 1 4.28-20.86l.66-.15a2.59 2.59 0 0 0 2.39-2.49 2.28 2.28 0 0 0-.77-2 2.18 2.18 0 0 0-1.78-.44l-.52.17-.54-1.32.85-.35-2.53-6.14a.3.3 0 0 1 .28-.41h5.76a.29.29 0 0 1 .28.18l1.82 4.52a.3.3 0 0 0 .21.17c.37.1 1.37.55 2.36 2.66l3.07 7.6-.76.26a.3.3 0 0 0-.21.28v2.39a.3.3 0 0 1-.2.28l-3.16 1.11a.29.29 0 0 1-.3-.05l-1.18-1a.34.34 0 0 0-.21-.08 7.2 7.2 0 0 0-7.5 7.47 9.11 9.11 0 0 0 9.2 8.89h6a.3.3 0 0 1 .3.3z" fill="#2e52a9"/><path d="M37.91 42.35a.3.3 0 0 1-.3.3H18.39a.29.29 0 0 1-.27-.19l-1.38-3.26a.3.3 0 0 1 .2-.4L21 37.74l-.92-.65a11.85 11.85 0 0 1 4.27-20.86l.67-.15a2.6 2.6 0 0 0 2.39-2.49 2.28 2.28 0 0 0-.78-2 2.16 2.16 0 0 0-1.78-.44l-.51.17-.56-1.32.85-.35-2.53-6.14a.3.3 0 0 1 .28-.41h5.77a.31.31 0 0 1 .28.18l1.82 4.52a.27.27 0 0 0 .21.17c.36.1 1.37.55 2.35 2.66l3.07 7.6-.76.26a.29.29 0 0 0-.2.28v2.39a.3.3 0 0 1-.2.28l-3.17 1.11a.3.3 0 0 1-.3-.05l-1.18-1a.32.32 0 0 0-.21-.08 7.21 7.21 0 0 0-7.5 7.47 9.11 9.11 0 0 0 9.2 8.89h6.05a.29.29 0 0 1 .3.3z" fill="#ffe600"/></g></g></svg>